<svg width="180" height="94" viewBox="0 0 180 94" fill="none" xmlns="http://www.w3.org/2000/svg">
<path d="M180 94H166.647C166.919 83.3043 165.137 72.6599 161.407 62.6951C157.676 52.7303 152.072 43.647 144.925 35.9813C137.778 28.3157 129.234 22.223 119.796 18.0628C110.357 13.9026 100.217 11.7593 89.9729 11.7593C79.7286 11.7593 69.5882 13.9026 60.1501 18.0628C50.7119 22.223 42.1673 28.3157 35.0205 35.9813C27.8738 43.647 22.2697 52.7303 18.539 62.6951C14.8083 72.6599 13.0266 83.3043 13.2991 94H0C0 69.0697 9.48212 45.1604 26.3604 27.532C43.2387 9.90355 66.1305 0 90 0C113.869 0 136.761 9.90355 153.64 27.532C170.518 45.1604 180 69.0697 180 94V94Z" fill="#26231E"/>
</svg>
