<?xml version="1.0" encoding="iso-8859-1"?>
<!-- Generator: Adobe Illustrator 16.0.0, SVG Export Plug-In . SVG Version: 6.00 Build 0)  -->
<!DOCTYPE svg PUBLIC "-//W3C//DTD SVG 1.1//EN" "http://www.w3.org/Graphics/SVG/1.1/DTD/svg11.dtd">
<svg version="1.1" id="Capa_1" xmlns="http://www.w3.org/2000/svg" xmlns:xlink="http://www.w3.org/1999/xlink" x="0px" y="0px"
	 width="51.75px" height="51.75px" viewBox="0 0 51.75 51.75" style="enable-background:new 0 0 51.75 51.75;" xml:space="preserve"
	>
<g>
	<g>
		<path d="M3,18.259c-1.654,0-3,1.346-3,3v0.644c0,1.365,0.922,2.507,2.172,2.869l4.633,20.417C5.744,45.652,5,46.709,5,47.938
			v0.645c0,1.653,1.346,3,3,3h35.75c1.654,0,3-1.347,3-3v-0.645c0-1.252-0.771-2.325-1.865-2.773l0.523-3.3
			c0.072-0.138,0.123-0.289,0.123-0.456c0-0.05-0.021-0.093-0.027-0.141l2.6-16.366h0.646c1.654,0,3-1.346,3-3v-0.644
			c0-1.654-1.346-3-3-3H31.564L44.105,5.716c0.566-0.567,0.879-1.32,0.879-2.122c0-0.802-0.312-1.555-0.879-2.121L43.65,1.017
			c-1.133-1.132-3.108-1.132-4.242,0L22.17,18.259H3z M35.68,24.903l-0.205,3.019h-8.6v-3.019H35.68z M36.32,44.938l0.172-2.528
			h6.806l-0.401,2.528H36.32z M26.875,44.938V42.41h7.611l-0.172,2.528H26.875z M17.643,44.938l-0.287-2.528h7.52v2.528H17.643z
			 M8.799,44.938L8.226,42.41h7.118l0.287,2.528H8.799z M34.624,40.409h-7.749V35.92h8.055L34.624,40.409z M36.936,35.922h7.395
			l-0.713,4.488h-6.988L36.936,35.922z M24.875,40.409h-7.746l-0.51-4.489h8.256V40.409z M16.393,33.922l-0.454-4h8.937v4H16.393z
			 M14.381,33.922H6.299l-0.907-4h8.535L14.381,33.922z M14.608,35.922l0.51,4.488H7.772l-1.019-4.488H14.608z M44.643,33.943
			c-0.037-0.004-0.07-0.021-0.109-0.021H37.07l0.272-4h7.938L44.643,33.943z M35.066,33.922h-8.19v-4h8.463L35.066,33.922z
			 M24.875,27.922h-9.163l-0.343-3.019h9.506V27.922z M13.358,24.903l0.343,3.019H4.938l-0.685-3.019H13.358z M44.75,48.582
			c0,0.551-0.448,1-1,1H8c-0.552,0-1-0.449-1-1v-0.645c0-0.551,0.448-1,1-1h35.75c0.552,0,1,0.449,1,1V48.582z M45.6,27.922H37.48
			l0.205-3.019h8.394L45.6,27.922z M49.75,21.259v0.644c0,0.551-0.448,1-1,1H3c-0.552,0-1-0.449-1-1v-0.644c0-0.551,0.448-1,1-1
			h19.584h6.566h19.6C49.302,20.259,49.75,20.708,49.75,21.259z M40.822,2.437c0.377-0.378,1.037-0.377,1.414,0l0.455,0.456
			c0.188,0.188,0.293,0.439,0.293,0.707c0,0.268-0.104,0.519-0.293,0.708L28.736,18.259h-3.738L40.822,2.437z"/>
	</g>
</g>
<g>
</g>
<g>
</g>
<g>
</g>
<g>
</g>
<g>
</g>
<g>
</g>
<g>
</g>
<g>
</g>
<g>
</g>
<g>
</g>
<g>
</g>
<g>
</g>
<g>
</g>
<g>
</g>
<g>
</g>
</svg>
