<svg  viewBox="0 0 373 365" fill="none" xmlns="http://www.w3.org/2000/svg">
<g clip-path="url(#clip0)">
<path d="M224.528 101.103C282.29 100.583 324.875 151.546 320.767 205.056C319.099 226.797 311.116 246.35 295.941 262.172C277.41 281.474 258.252 300.255 239.202 319.162C232.259 325.979 223.757 327.79 214.752 324.185C205.746 320.579 200.598 313.512 199.45 303.861C198.679 297.69 200.347 292.147 204.85 287.644C217.711 274.514 230.573 261.401 243.453 248.27C249.749 241.704 256.189 235.282 261.858 228.322C274.845 212.501 276.657 194.867 267.903 176.731C258.647 157.699 242.951 148.425 221.586 149.07C209.747 149.322 199.845 153.824 191.485 161.932C183.377 169.789 175.269 177.879 166.91 185.485C158.802 192.822 148.254 193.593 139.374 188.051C130.226 182.418 125.849 171.475 128.809 161.197C129.455 158.883 130.603 156.443 132.145 154.506C143.985 140.352 156.47 126.845 171.897 116.548C187.862 105.731 205.746 100.727 224.528 101.103Z" fill="black"/>
<path d="M147.698 263.733C91.2099 264.127 48.122 213.039 52.2299 159.654C53.8981 138.684 61.2349 119.634 75.5139 104.332C93.524 85.0304 112.575 66.6256 131.23 47.9697C133.293 45.9068 135.607 44.2386 138.047 42.6959C147.303 37.0273 156.829 37.9422 165.331 45.0099C172.668 51.1807 175.879 62.6433 172.022 71.3793C170.605 74.7338 167.897 77.6936 165.331 80.3844C149.241 96.8518 133.042 113.319 117.077 129.787C110.637 136.352 104.987 143.42 102.152 152.55C92.7526 182.543 115.66 217.667 151.034 215.873C162.748 215.227 172.776 211.37 181.261 203.262C189.369 195.405 197.351 187.441 205.836 179.709C213.944 172.372 223.846 171.35 232.6 176.373C241.605 181.395 246.502 191.297 244.565 201.594C243.919 204.805 242.502 208.285 240.439 210.725C228.6 224.752 215.989 238.26 200.688 248.682C184.759 259.481 166.731 263.607 147.698 263.733Z" fill="black"/>
</g>
<defs>
<clipPath id="clip0">
<rect width="287" height="287" fill="white" transform="translate(43 39)"/>
</clipPath>
</defs>
</svg>
