<svg width="442" height="238" viewBox="0 0 442 238" fill="none" xmlns="http://www.w3.org/2000/svg">
<rect width="442" height="238" fill="white"/>
<path d="M45.33 120.394C44.48 118.394 43.17 117.394 41.33 117.394C39.14 117.394 37.75 118.504 37.75 120.464C37.75 122.584 39.75 123.154 42.35 123.834C45.35 124.634 48 125.544 48 129.004C48 133.344 45.27 135.334 41.41 135.334C37.55 135.334 34.77 133.334 34 129.434L36.33 128.524C37.04 131.194 38.57 132.954 41.41 132.954C43.82 132.954 45.5 131.754 45.5 129.344C45.5 127.274 43.97 126.844 40.99 126.114C38.17 125.404 35.25 124.524 35.25 120.544C35.25 117.394 37.44 115.004 41.33 115.004C42.6848 114.956 44.0195 115.343 45.1374 116.11C46.2553 116.877 47.0975 117.983 47.54 119.264L45.33 120.394Z" fill="#26231E"/>
<path d="M53.36 115.214H55.86V128.404C55.8312 129.019 55.9273 129.633 56.1427 130.21C56.3581 130.786 56.6882 131.313 57.1131 131.758C57.538 132.204 58.0488 132.558 58.6146 132.8C59.1805 133.042 59.7895 133.167 60.405 133.167C61.0205 133.167 61.6295 133.042 62.1954 132.8C62.7612 132.558 63.272 132.204 63.6969 131.758C64.1218 131.313 64.4519 130.786 64.6673 130.21C64.8827 129.633 64.9788 129.019 64.95 128.404V115.214H67.45V128.214C67.45 130.083 66.7078 131.874 65.3866 133.196C64.0654 134.517 62.2734 135.259 60.405 135.259C58.5365 135.259 56.7446 134.517 55.4234 133.196C54.1022 131.874 53.36 130.083 53.36 128.214V115.214Z" fill="#26231E"/>
<path d="M86.47 115.214V135.124H83.74L75.43 119.794V135.124H72.93V115.214H75.65L83.97 130.544V115.214H86.47Z" fill="#26231E"/>
<path d="M97.46 115.214C102.63 115.214 106.29 118.424 106.29 125.154C106.29 131.884 102.63 135.084 97.46 135.084H92.46V115.214H97.46ZM94.93 117.604V132.704H97.2C101.2 132.704 103.62 130.704 103.62 125.154C103.62 119.604 101.15 117.604 97.2 117.604H94.93Z" fill="#26231E"/>
<path d="M119.57 115.214L126.57 135.124H123.99L122.2 129.824H114.42L112.63 135.124H110.07L117.14 115.214H119.57ZM115.31 127.394H121.44L118.38 118.454L115.31 127.394Z" fill="#26231E"/>
<path d="M130 115.214H132.75L137.64 124.754L142.57 115.214H145.32L138.94 127.214V135.044H136.44V127.294L130 115.214Z" fill="#26231E"/>
<path d="M168.68 115.23L172.91 126.23L177.14 115.23H179.81V135.1H177.31V120.54L173.85 129.39H171.96L168.5 120.54V135.1H166V115.23H168.68Z" fill="#26231E"/>
<path d="M230.11 125.73H226.79V135.1H224.29V115.23H231.29C234.81 115.23 237.14 116.96 237.14 120.48C237.237 121.698 236.859 122.907 236.086 123.854C235.312 124.8 234.203 125.412 232.99 125.56L238.93 135.1H235.93L230.11 125.73ZM226.79 117.65V123.35H231.31C233.38 123.35 234.51 122.47 234.51 120.48C234.51 118.49 233.38 117.65 231.31 117.65H226.79Z" fill="#26231E"/>
<path d="M256.89 115.23V135.1H254.16L245.84 119.77V135.1H243.35V115.23H246.07L254.39 130.56V115.23H256.89Z" fill="#26231E"/>
<path d="M263.39 135.1V132.94H268.19V117.38H263.39V115.23H275.49V117.38H270.68V132.94H275.48V135.1H263.39Z" fill="#26231E"/>
<path d="M295.5 115.23V135.1H292.78L284.46 119.77V135.1H281.96V115.23H284.68L293 130.56V115.23H295.5Z" fill="#26231E"/>
<path d="M313.53 132.43C313.076 133.353 312.359 134.121 311.469 134.637C310.579 135.153 309.557 135.394 308.53 135.33C304.21 135.33 300.53 132.03 300.53 125.16C300.53 118.29 304.25 115 308.74 115C312.66 115 314.98 117.53 315.86 121.05L313.51 121.76C312.63 118.86 311.24 117.38 308.74 117.38C305.36 117.38 303.12 119.74 303.12 125.16C303.12 130.58 305.36 132.94 308.74 132.94C311.46 132.94 312.94 130.94 313.2 127.46H308.68V125.08H315.68V135.08H313.68L313.53 132.43Z" fill="#26231E"/>
<path d="M218.53 134.98H216.07C216.12 133.093 215.792 131.216 215.105 129.458C214.417 127.701 213.385 126.099 212.068 124.747C210.752 123.394 209.178 122.32 207.439 121.586C205.7 120.852 203.832 120.474 201.945 120.474C200.058 120.474 198.19 120.852 196.451 121.586C194.712 122.32 193.138 123.394 191.822 124.747C190.505 126.099 189.473 127.701 188.785 129.458C188.098 131.216 187.77 133.093 187.82 134.98H185.37C185.37 130.583 187.117 126.366 190.226 123.256C193.336 120.147 197.553 118.4 201.95 118.4C206.347 118.4 210.564 120.147 213.674 123.256C216.783 126.366 218.53 130.583 218.53 134.98V134.98Z" fill="#26231E"/>
</svg>
