<svg width="322" height="143" viewBox="0 0 322 143" fill="none" xmlns="http://www.w3.org/2000/svg">
<path d="M322 143H298.112C298.6 126.729 295.412 110.536 288.739 95.3766C282.065 80.2174 272.04 66.3992 259.255 54.7376C246.47 43.076 231.185 33.8073 214.301 27.4785C197.417 21.1497 179.277 17.8891 160.951 17.8891C142.626 17.8891 124.486 21.1497 107.602 27.4785C90.718 33.8073 75.4326 43.076 62.6479 54.7376C49.8631 66.3992 39.8379 80.2174 33.1642 95.3766C26.4904 110.536 23.3032 126.729 23.7907 143H0C0 105.074 16.9625 68.7014 47.1558 41.8837C77.3492 15.066 118.3 0 161 0C203.7 0 244.651 15.066 274.844 41.8837C305.038 68.7014 322 105.074 322 143V143Z" fill="#26231E"/>
</svg>
